<svg id="visual" viewBox="0 0 1920 1080" width="1920" height="1080" xmlns="http://www.w3.org/2000/svg" xmlns:xlink="http://www.w3.org/1999/xlink" version="1.1"><rect x="0" y="0" width="1920" height="1080" fill="#1e3c72"></rect><path d="M0 757L80 766C160 775 320 793 480 767.3C640 741.7 800 672.3 960 666.8C1120 661.3 1280 719.7 1440 717.8C1600 716 1760 654 1840 623L1920 592L1920 1081L1840 1081C1760 1081 1600 1081 1440 1081C1280 1081 1120 1081 960 1081C800 1081 640 1081 480 1081C320 1081 160 1081 80 1081L0 1081Z" fill="#1F75FE" stroke-linecap="round" stroke-linejoin="miter"></path></svg>